# AST/ASF file generated using VICON BodyLanguage
# -----------------------------------------------
:version 1.10
:name VICON
:units
  mass 1.0
  length 0.45
  angle deg
:documentation
   .ast/.asf automatically generated from VICON data using
   VICON BodyBuilder and BodyLanguage model FoxedUp or BRILLIANT.MOD
:root
   order TX TY TZ RX RY RZ
   axis XYZ
   position 0 0 0  
   orientation 0 0 0 
:bonedata
  begin
     id 1 
     name lhipjoint
     direction 0.61522 -0.761478 0.204097 
     length 2.55743 
     axis 0 0 0  XYZ
  end
  begin
     id 2 
     name lfemur
     direction 0.34202 -0.939693 0  
     length 7.61162  
     axis 0 0 20  XYZ
    dof rx ry rz
    limits (-160.0 20.0)
           (-70.0 70.0)
           (-60.0 70.0)
  end
  begin
     id 3 
     name ltibia
     direction 0.34202 -0.939693 0   
     length 8.12393   
     axis 0 0 20   XYZ
    dof rx
    limits (-10.0 170.0)
  end
  begin
     id 4 
     name lfoot
     direction 0.0841971 -0.23133 0.969225   
     length 2.3572   
     axis -90 7.62852e-016 20   XYZ
    dof rx rz
    limits (-45.0 90.0)
           (-70.0 20.0)
  end
  begin
     id 5 
     name ltoes
     direction 1.53562e-011 -4.22209e-011 1   
     length 1.17993   
     axis -90 7.62852e-016 20   XYZ
    dof rx
    limits (-90.0 20.0)
  end
  begin
     id 6 
     name rhipjoint
     direction -0.625247 -0.75382 0.202044   
     length 2.58341  
     axis 0 0 0  XYZ 
  end
  begin
     id 7 
     name rfemur
     direction -0.34202 -0.939693 0   
     length 7.42147   
     axis 0 0 -20   XYZ
    dof rx ry rz
    limits (-160.0 20.0)
           (-70.0 70.0)
           (-70.0 60.0)
  end
  begin
     id 8 
     name rtibia
     direction -0.34202 -0.939693 0   
     length 8.20893   
     axis 0 0 -20   XYZ
    dof rx
    limits (-10.0 170.0)
 end
 begin
     id 9 
     name rfoot
     direction -0.124331 -0.341598 0.931586   
     length 2.45604  
     axis -90 -7.62852e-016 -20   XYZ
    dof rx rz
    limits (-45.0 90.0)
           (-20.0 70.0)
  end
  begin
     id 10 
     name rtoes
     direction -1.5353e-011 -4.2199e-011 1   
     length 1.21323   
     axis -90 -7.62852e-016 -20   XYZ
    dof rx
    limits (-90.0 20.0)
  end
  begin
     id 11 
     name lowerback
     direction -0.0218484 0.994884 -0.0986303   
     length 2.00523   
     axis 0 0 0   XYZ
    dof rx ry rz
    limits (-20.0 45.0)
           (-30.0 30.0)
           (-30.0 30.0)
  end
  begin
     id 12 
     name upperback
     direction -0.0097305 0.999717 -0.0217111   
     length 2.01352   
     axis 0 0 0   XYZ
    dof rx ry rz
    limits (-20.0 45.0)
           (-30.0 30.0)
           (-30.0 30.0)
  end
  begin
     id 13 
     name thorax
     direction -0.000928262 0.999699 0.0245198   
     length 2.02938   
     axis 0 0 0   XYZ
    dof rx ry rz
    limits (-20.0 45.0)
           (-30.0 30.0)
           (-30.0 30.0)
  end
  begin
     id 14 
     name lowerneck
     direction -0.0307979 0.998024 0.0547665   
     length 1.77263   
     axis 0 0 0   XYZ
    dof rx ry rz
    limits (-20.0 45.0)
           (-30.0 30.0)
           (-30.0 30.0)
  end
  begin
     id 15 
     name upperneck
     direction 0.0531587 0.996611 -0.0627734   
     length 1.77971   
     axis 0 0 0   XYZ
    dof rx ry rz
    limits (-20.0 45.0)
           (-30.0 30.0)
           (-30.0 30.0)
  end
  begin
     id 16
     name head
     direction 0.0213833 0.999404 -0.0271147  
     length 1.78263  
     axis 0 0 0   XYZ
    dof rx ry rz
    limits (-20.0 45.0)
           (-30.0 30.0)
           (-30.0 30.0)
  end
  begin
     id 17 
     name lclavicle
     direction 0.940017 0.332249 -0.0773233  
     length 3.73315  
     axis 0 0 0   XYZ
    dof ry rz
    limits (-20.0 10.0)
           (0.0 20.0)
  end
  begin
     id 18 
     name lhumerus
     direction 1 -4.48944e-011 7.52288e-028   
     length 5.40188   
     axis 180 -30 -90   XYZ
    dof rx ry rz
    limits (-60.0 90.0)
           (-90.0 90.0)
           (-90.0 90.0)
  end
  begin
     id 19
     name lradius
     direction 1 -4.48988e-011 1.48381e-027   
     length 3.68559   
     axis 180 -30 -90   XYZ
    dof rx
    limits (-10.0 170.0)
  end
  begin
     id 20
     name lwrist
     direction 1 -4.48925e-011 2.56952e-028   
     length 1.84279   
     axis -5.12785e-016 90 90   XYZ
    dof ry
    limits (-180.0 0.0)
 end
  begin
     id 21 
     name lhand
     direction 1 -4.49009e-011 5.13905e-028   
     length 0.61753   
     axis -3.27915e-016 90 90   XYZ
    dof rx rz
    limits (-90.0 90.0)
           (-45.0 45.0)
  end
  begin
     id 22 
     name lfingers
     direction 1 -4.49012e-011 1.02781e-027   
     length 0.497868   
     axis -6.5583e-016 90 90   XYZ
    dof rx
    limits (0.0 90.0)
  end
  begin
     id 23
     name lthumb
     direction 0.707107 -6.34987e-011 0.707107   
     length 0.714842   
     axis -90 45 2.85299e-015   XYZ
    dof rx rz
    limits (-45.0 45.0)
           (-45.0 45.0)
  end
  begin
     id 24 
     name rclavicle
     direction -0.9009 0.425937 -0.0834057   
     length 3.27864  
     axis 0 0 0   XYZ 
    dof ry rz
    limits (-10.0 20.0)
           (-20.0 0.0)
  end
  begin
     id 25 
     name rhumerus
     direction -1 -4.48953e-011 -1.03572e-027  
     length 6.1067   
     axis 180 30 90   XYZ
    dof rx ry rz
    limits (-90.0 60.0)
           (-90.0 90.0)
           (-90.0 90.0)
  end
  begin
     id 26 
     name rradius
     direction -1 -4.48975e-011 1.20742e-027   
     length 3.63052   
     axis 180 30 90   XYZ
    dof rx
    limits (-10.0 170.0)
  end
  begin
     id 27 
     name rwrist
     direction -1 -4.49017e-011 2.56952e-028   
     length 1.81526   
     axis -5.12785e-016 -90 -90   XYZ
    dof ry
    limits (-180.0 0.0)
  end
  begin
     id 28
     name rhand
     direction -1 -4.48832e-011 5.13905e-028   
     length 0.583848   
     axis -3.27915e-016 -90 -90   XYZ
    dof rx rz
    limits (-90.0 90.0)
           (-45.0 45.0)
  end
  begin
     id 29
     name rfingers
     direction -1 -4.48729e-011 1.02781e-027   
     length 0.470713   
     axis -6.5583e-016 -90 -90   XYZ
    dof rx
    limits (0.0 90.0)
  end
  begin
     id 30
     name rthumb
     direction -0.707107 -6.34964e-011 0.707107   
     length 0.675852   
     axis -90 -45 -2.85299e-015   XYZ
    dof rx rz
    limits (-45.0 45.0)
           (-45.0 45.0)
  end
:hierarchy
  begin
    root lhipjoint rhipjoint lowerback
    lhipjoint lfemur
    lfemur ltibia
    ltibia lfoot
    lfoot ltoes
    rhipjoint rfemur
    rfemur rtibia
    rtibia rfoot
    rfoot rtoes
    lowerback upperback
    upperback thorax
    thorax lowerneck lclavicle rclavicle
    lowerneck upperneck
    upperneck head
    lclavicle lhumerus
    lhumerus lradius
    lradius lwrist
    lwrist lhand lthumb
    lhand lfingers
    rclavicle rhumerus
    rhumerus rradius
    rradius rwrist
    rwrist rhand rthumb
    rhand rfingers
  end

#!OML:ASF F:\VICON\USERDATA\INSTALL\rory3\rory3.ASF
:FULLY-SPECIFIED
:DEGREES
288
root -0.534163 18.9927 3.14704 -5.17047 -3.603 2.7251
lowerback 6.63606 0.42347 -1.99917
upperback 0.214397 0.397292 -0.39722
thorax -3.51131 0.226926 0.67474
lowerneck -11.1738 -0.680457 -6.41631
upperneck 13.1901 -0.701923 5.92953
head 5.86342 -0.213245 2.87589
rclavicle 5.13734e-015 -3.77691e-015
rhumerus -32.0809 -43.2412 -46.4475
rradius 34.5591
rwrist -21.5158
rhand -35.684 -6.19679
rfingers 7.12502
rthumb -8.80489 -35.9931
lclavicle 5.13734e-015 -3.77691e-015
lhumerus -34.0064 33.2405 50.7011
lradius 42.8707
lwrist 60.2165
lhand -29.5286 34.5338
lfingers 7.12502
lthumb -2.86218 64.4943
rfemur -12.4125 13.7084 16.9175
rtibia 47.3165
rfoot 0.919461 8.28056
rtoes -2.3195
lfemur -10.835 4.94888 -21.1657
ltibia 47.1934
lfoot 6.04606 -6.00478
ltoes -1.96919
289
root -0.530934 19.1623 3.1722 -5.05113 -3.55163 2.77032
lowerback 6.13929 0.386358 -2.02997
upperback 0.157901 0.358086 -0.385554
thorax -3.29022 0.206594 0.710346
lowerneck -11.2738 -0.619237 -6.18589
upperneck 13.42 -0.6155 5.63261
head 5.94621 -0.181526 2.75292
rclavicle 7.45443e-017 1.86858e-014
rhumerus -31.1712 -43.0102 -45.1732
rradius 35.5632
rwrist -21.031
rhand -36.3227 -6.31047
rfingers 7.12502
rthumb -9.42118 -36.0799
lclavicle 7.45443e-017 1.86858e-014
lhumerus -33.2654 32.7867 49.2391
lradius 43.9464
lwrist 60.8523
lhand -28.8522 33.8831
lfingers 7.12502
lthumb -2.20901 63.8514
rfemur -12.2096 13.9424 16.3819
rtibia 45.7632
rfoot 3.91821 8.5134
rtoes -2.53726
lfemur -10.3159 4.8339 -20.8465
ltibia 45.4473
lfoot 8.48034 -5.64774
ltoes -3.36137
290
root -0.527478 19.3198 3.19009 -4.86604 -3.57122 2.57068
lowerback 5.71418 0.337718 -1.84428
upperback 0.0349506 0.317842 -0.295691
thorax -3.1769 0.184292 0.70399
lowerneck -11.2824 -0.559092 -6.03462
upperneck 13.6099 -0.528475 5.39113
head 6.00155 -0.150637 2.66004
rclavicle -1.21321e-014 1.03368e-014
rhumerus -30.162 -42.6935 -43.9053
rradius 36.503
rwrist -20.6319
rhand -37.0539 -5.60038
rfingers 7.12502
rthumb -10.1266 -35.3367
lclavicle -1.21321e-014 1.03368e-014
lhumerus -32.4376 32.495 47.6942
lradius 44.9244
lwrist 61.2525
lhand -28.4368 33.5176
lfingers 7.12502
lthumb -1.80778 63.4897
rfemur -12.1309 14.2476 16.1286
rtibia 44.3106
rfoot 6.08249 9.10813
rtoes -3.51319
lfemur -9.91414 4.66711 -20.2337
ltibia 43.7801
lfoot 10.21 -5.32263
ltoes -4.9716
291
root -0.523223 19.4688 3.20796 -4.72724 -3.6117 2.31102
lowerback 5.31867 0.300737 -1.56488
upperback -0.0437229 0.296306 -0.227186
thorax -3.03426 0.169276 0.621072
lowerneck -11.3121 -0.499304 -6.06062
upperneck 13.7959 -0.454338 5.44322
head 6.06073 -0.112288 2.6896
rclavicle -1.63935e-014 -1.15295e-014
rhumerus -28.9503 -42.4391 -42.7505
rradius 37.368
rwrist -20.2818
rhand -37.9645 -4.96712
rfingers 7.12502
rthumb -11.005 -34.6587
lclavicle -1.63935e-014 -1.15295e-014
lhumerus -31.3404 32.2434 46.161
lradius 45.7914
lwrist 61.4904
lhand -28.777 33.2709
lfingers 7.12502
lthumb -2.13631 63.24
rfemur -12.0544 14.7117 15.9812
rtibia 43.034
rfoot 6.87022 10.1599
rtoes -5.86351
lfemur -9.45688 4.416 -19.5689
ltibia 42.2698
lfoot 10.9271 -4.69047
ltoes -5.91991
292
root -0.518414 19.6078 3.22805 -4.56297 -3.57493 2.23839
lowerback 4.89265 0.279924 -1.48887
upperback -0.147048 0.280236 -0.227574
thorax -2.90079 0.159834 0.580761
lowerneck -11.3012 -0.457863 -6.00861
upperneck 13.9513 -0.415588 5.46384
head 6.10532 -0.0898464 2.69274
rclavicle 1.19084e-014 3.97569e-015
rhumerus -27.8514 -42.0157 -41.5056
rradius 38.3778
rwrist -19.9789
rhand -38.6933 -4.97916
rfingers 7.12502
rthumb -11.7079 -34.632
lclavicle 1.19084e-014 3.97569e-015
lhumerus -30.2197 31.7805 44.6264
lradius 46.7596
lwrist 61.7161
lhand -28.92 32.7353
lfingers 7.12502
lthumb -2.27448 62.7029
rfemur -12.0614 15.2628 15.6068
rtibia 41.9864
rfoot 6.43313 10.736
rtoes -8.09529
lfemur -9.04803 4.14781 -19.1384
ltibia 41.02
lfoot 10.3771 -3.83728
ltoes -7.11538
293
root -0.514633 19.7264 3.24548 -4.33401 -3.49934 2.22582
lowerback 4.45071 0.280894 -1.51003
upperback -0.284742 0.287623 -0.21551
thorax -2.79474 0.163958 0.605964
lowerneck -11.2353 -0.462209 -5.9814
upperneck 14.0123 -0.434274 5.47946
head 6.11426 -0.0972813 2.69214
rclavicle -4.05024e-015 -8.74653e-015
rhumerus -26.8399 -41.7711 -40.0125
rradius 39.3798
rwrist -19.3278
rhand -38.9431 -4.88963
rfingers 7.12502
rthumb -11.9488 -34.5286
lclavicle -4.05024e-015 -8.74653e-015
lhumerus -29.0486 31.2288 43.1146
lradius 47.7365
lwrist 61.8836
lhand -28.5642 32.1786
lfingers 7.12502
lthumb -1.93085 62.1497
rfemur -12.1345 15.9544 15.1605
rtibia 41.1969
rfoot 5.18405 9.89912
rtoes -9.17731
lfemur -8.79792 3.8642 -18.7751
ltibia 40.0668
lfoot 8.91826 -2.69103
ltoes -8.8653
